<?xml version="1.0" encoding="UTF-8"?>
<svg width="28px" height="28px" viewBox="0 0 28 28" version="1.1" xmlns="http://www.w3.org/2000/svg" xmlns:xlink="http://www.w3.org/1999/xlink">
    <!-- Generator: Sketch 47.1 (45422) - http://www.bohemiancoding.com/sketch -->
    <title>舒适度icon</title>
    <desc>Created with Sketch.</desc>
    <defs></defs>
    <g id="Page-1" stroke="none" stroke-width="1" fill="none" fill-rule="evenodd">
        <g id="主页-无限行指数2" transform="translate(-315.000000, -1237.000000)">
            <g id="指数" transform="translate(0.000000, 1224.000000)">
                <g id="舒适度指数" transform="translate(311.000000, 13.000000)">
                    <g id="舒适度icon" transform="translate(4.000000, 0.000000)">
                        <rect id="Rectangle-11" fill="#D8D8D8" opacity="0" x="0" y="0" width="28" height="28"></rect>
                        <path d="M14.000087,22.2607826 C9.43791304,22.2607826 5.73921739,18.562087 5.73921739,13.999913 C5.73921739,9.43773913 9.43791304,5.73904348 14.000087,5.73904348 C18.5622609,5.73904348 22.2609565,9.43773913 22.2609565,13.999913 C22.2609565,18.562087 18.5622609,22.2607826 14.000087,22.2607826 M14.000087,3.99991304 C8.47704348,3.99991304 4.00008696,8.47730435 4.00008696,13.999913 C4.00008696,19.5229565 8.47704348,23.999913 14.000087,23.999913 C19.5226957,23.999913 24.000087,19.5229565 24.000087,13.999913 C24.000087,8.47730435 19.5226957,3.99991304 14.000087,3.99991304" id="Fill-1" fill="#9EC48C"></path>
                        <path d="M11,13 L11,13 C10.4495,13 10,12.5505 10,12 L10,11 C10,10.45 10.4495,10 11,10 C11.55,10 12,10.45 12,11 L12,12 C12,12.5505 11.55,13 11,13" id="Fill-4" fill="#9EC48C"></path>
                        <path d="M17,13 L17,13 C16.4495,13 16,12.5505 16,12 L16,11 C16,10.45 16.4495,10 17,10 C17.55,10 18,10.45 18,11 L18,12 C18,12.5505 17.55,13 17,13" id="Fill-6" fill="#9EC48C"></path>
                        <path d="M18.0567931,15 C17.718054,15 17.413095,15.1768889 17.2427871,15.4542222 C16.5925206,16.5111111 15.3848829,17.2222222 14.0003689,17.2222222 C12.6153858,17.2222222 11.407748,16.5111111 10.7574816,15.4542222 C10.5871737,15.1768889 10.2822147,15 9.94347556,15 C9.22846394,15 8.76680289,15.7337778 9.1229012,16.3213333 C10.0931401,17.9213333 11.9116342,19 14.0003689,19 C16.0886345,19 17.9071286,17.9213333 18.8768983,16.3213333 C19.2334658,15.7337778 18.7713355,15 18.0567931,15" id="Fill-8" fill="#9EC48C"></path>
                    </g>
                </g>
            </g>
        </g>
    </g>
</svg>