<?xml version="1.0" encoding="UTF-8"?>
<svg width="28px" height="28px" viewBox="0 0 28 28" version="1.1" xmlns="http://www.w3.org/2000/svg" xmlns:xlink="http://www.w3.org/1999/xlink">
    <!-- Generator: Sketch 47.1 (45422) - http://www.bohemiancoding.com/sketch -->
    <title>晾晒icon</title>
    <desc>Created with Sketch.</desc>
    <defs></defs>
    <g id="Page-1" stroke="none" stroke-width="1" fill="none" fill-rule="evenodd">
        <g id="主页-无限行指数2" transform="translate(-34.000000, -1331.000000)">
            <g id="指数" transform="translate(0.000000, 1224.000000)">
                <g id="晾晒指数" transform="translate(34.000000, 107.000000)">
                    <g id="晾晒icon">
                        <rect id="Rectangle-12" fill="#D8D8D8" opacity="0" x="0" y="0" width="28" height="28"></rect>
                        <path d="M24.650883,21.9489231 L13.7689208,21.9489231 L2.88748679,21.9489231 C2.45216604,21.9489231 2.09978868,21.6043077 2.09978868,21.1796923 C2.09978868,20.8699487 2.31375094,20.6181538 2.55729811,20.4832821 L13.7678642,13.7437949 L13.7689208,13.7443077 L13.7699774,13.7437949 L24.9810717,20.4832821 C25.2246189,20.6181538 25.4380528,20.8699487 25.4380528,21.1796923 C25.4380528,21.6043077 25.0856755,21.9489231 24.650883,21.9489231 M26.0582792,18.7222564 L14.8704302,11.9966154 C14.8456,11.9817436 14.8197132,11.9714872 14.7943547,11.957641 L14.7943547,11.6935385 C14.7943547,11.2627692 14.9982792,10.8555897 15.5440151,10.5043077 C16.0929208,10.152 17.6207698,9.43764103 17.6207698,7.55969231 C17.6207698,5.68174359 16.0157887,4.39046154 14.667034,4.11764103 C13.3188075,3.84328205 11.8543547,4.02328205 10.8194113,5.13764103 C10.0237887,5.9894359 9.77126038,6.70687179 9.71314717,7.97866667 L11.783034,7.97866667 C11.8131472,7.14174359 12.0212981,6.32635897 13.2363925,6.08533333 C13.9754868,5.93917949 14.667034,6.16635897 15.0759396,6.56020513 C15.5471849,7.00994872 15.5503547,8.02328205 14.8017509,8.52892308 L13.6289208,9.312 C12.9442415,9.74225641 12.7096755,10.2222564 12.7096755,10.926359 L12.7096755,11.9771282 C12.6964679,11.9848205 12.6816755,11.9884103 12.6674113,11.9966154 L1.48009057,18.7222564 C0.5656,19.2468718 0.000316981132,20.1848205 0.000316981132,21.1796923 C0.000316981132,22.7345641 1.29518491,24.0002051 2.88748679,24.0002051 L13.7689208,24.0002051 L24.650883,24.0002051 C26.2431849,24.0002051 27.5380528,22.7345641 27.5380528,21.1796923 C27.5380528,20.1848205 26.9727698,19.2468718 26.0582792,18.7222564" id="Fill-1" fill="#A6BACC"></path>
                        <path d="M12,8 L10,8 C10,8.55237609 10.4476774,9 11,9 C11.5523226,9 12,8.55237609 12,8" id="Fill-4" fill="#A6BACC"></path>
                    </g>
                </g>
            </g>
        </g>
    </g>
</svg>