<?xml version="1.0" encoding="UTF-8"?>
<svg width="28px" height="28px" viewBox="0 0 28 28" version="1.1" xmlns="http://www.w3.org/2000/svg" xmlns:xlink="http://www.w3.org/1999/xlink">
    <!-- Generator: Sketch 47.1 (45422) - http://www.bohemiancoding.com/sketch -->
    <title>化妆icon</title>
    <desc>Created with Sketch.</desc>
    <defs></defs>
    <g id="Page-1" stroke="none" stroke-width="1" fill="none" fill-rule="evenodd">
        <g id="主页-无限行指数2" transform="translate(-128.000000, -1331.000000)">
            <g id="指数" transform="translate(0.000000, 1224.000000)">
                <g id="化妆指数" transform="translate(128.000000, 107.000000)">
                    <g id="化妆icon">
                        <rect id="Rectangle-13" fill="#D8D8D8" opacity="0" x="0" y="0" width="28" height="28"></rect>
                        <path d="M3.48488276,5.74049615 C2.83853793,6.40134231 2.83853793,7.47299615 3.48488276,8.13384231 L9.92184828,14.7152269 L11.092469,13.5187654 L4.94764138,7.23607308 C4.78626207,7.07149615 4.78626207,6.80326538 4.94764138,6.63784231 C6.07895172,5.48157308 7.91288276,5.48157308 9.0441931,6.63784231 L13.4328828,11.1254192 L14.6035034,9.92853462 L10.5073655,5.74049615 C8.56791724,3.75753462 5.42433103,3.75753462 3.48488276,5.74049615" id="Fill-1" fill="#E09090"></path>
                        <path d="M22.6019368,16.3633263 C22.9295158,16.6904842 22.9295158,17.2269053 22.6019368,17.5540632 L18.4339368,21.7224842 C18.1063579,22.0500632 17.5707789,22.0500632 17.2427789,21.7224842 L11.2886737,15.7679579 C10.9610947,15.4403789 10.9610947,14.9043789 11.2886737,14.5768 L15.4566737,10.4083789 C15.7842526,10.0812211 16.3198316,10.0812211 16.6474105,10.4083789 L22.6019368,16.3633263 Z M14.8608842,8.62227368 L9.50214737,13.9814316 C8.84698947,14.6361684 8.84698947,15.7081684 9.50214737,16.3633263 L16.6474105,23.5090105 C17.3025684,24.1637474 18.3745684,24.1637474 19.0297263,23.5090105 L24.3884632,18.1494316 C25.0436211,17.4946947 25.0436211,16.4231158 24.3884632,15.7679579 L17.2427789,8.62227368 C16.5880421,7.96753684 15.5160421,7.96753684 14.8608842,8.62227368 L14.8608842,8.62227368 Z" id="Fill-4" fill="#E09090"></path>
                        <polygon id="Fill-7" fill="#E09090" points="19 11.0665158 12.0668427 18 11 16.9334842 17.9331573 10"></polygon>
                    </g>
                </g>
            </g>
        </g>
    </g>
</svg>