<?xml version="1.0" encoding="UTF-8"?>
<svg width="28px" height="28px" viewBox="0 0 28 28" version="1.1" xmlns="http://www.w3.org/2000/svg" xmlns:xlink="http://www.w3.org/1999/xlink">
    <!-- Generator: Sketch 47.1 (45422) - http://www.bohemiancoding.com/sketch -->
    <title>晨练icon</title>
    <desc>Created with Sketch.</desc>
    <defs></defs>
    <g id="Page-1" stroke="none" stroke-width="1" fill="none" fill-rule="evenodd">
        <g id="主页-无限行指数2" transform="translate(-221.000000, -1331.000000)">
            <g id="指数" transform="translate(0.000000, 1224.000000)">
                <g id="晨练指数" transform="translate(221.000000, 107.000000)">
                    <g id="晨练icon">
                        <rect id="Rectangle-14" fill="#D8D8D8" opacity="0" x="0" y="0" width="28" height="28"></rect>
                        <path d="M16.9163297,12 C15.3422795,12 13.9333926,12.7075713 13,13.8159292 C13.575872,13.9386431 14.116152,14.1526057 14.6088425,14.4373648 C15.2239058,13.9012783 16.0301266,13.5732547 16.9163297,13.5732547 C18.8407021,13.5732547 20.4003555,15.107178 20.4003555,17.0001967 C20.4003555,18.813766 18.9662742,20.2949853 17.1530771,20.4149459 C17.0087092,20.9758112 16.7775605,21.5016716 16.4712286,21.9775811 C16.617996,21.9901672 16.7659631,22 16.9163297,22 C19.7197067,22 22,19.7569322 22,17.0001967 C22,14.2430678 19.7197067,12 16.9163297,12" id="Fill-1" fill="#87C5DD"></path>
                        <path d="M11.3783231,14.0001154 C8.41255385,14.0001154 6.00016923,16.2431832 6.00016923,19.000312 C6.00016923,21.7570475 8.41255385,24.0001154 11.3783231,24.0001154 C14.3440923,24.0001154 16.7564769,21.7570475 16.7564769,19.000312 C16.7564769,16.2431832 14.3440923,14.0001154 11.3783231,14.0001154 M11.3783231,15.5733701 C13.4141692,15.5733701 15.0641692,17.1076867 15.0641692,19.000312 C15.0641692,20.8925441 13.4141692,22.4268607 11.3783231,22.4268607 C9.34247692,22.4268607 7.69247692,20.8925441 7.69247692,19.000312 C7.69247692,17.1076867 9.34247692,15.5733701 11.3783231,15.5733701" id="Fill-3" fill="#87C5DD"></path>
                        <path d="M10.8,15.65 L10.8,15.65 C10.36,15.65 10,15.29 10,14.85 L10,6.8 C10,6.36 10.36,6 10.8,6 C11.2404,6 11.6,6.36 11.6,6.8 L11.6,14.85 C11.6,15.29 11.2404,15.65 10.8,15.65" id="Fill-8" fill="#87C5DD"></path>
                        <path d="M15.96972,13.69064 L15.96972,13.69064 C15.52972,13.69064 15.16972,13.33064 15.16972,12.89064 L15.16972,4.84064 C15.16972,4.40064 15.52972,4.04064 15.96972,4.04064 C16.41012,4.04064 16.76972,4.40064 16.76972,4.84064 L16.76972,12.89064 C16.76972,13.33064 16.41012,13.69064 15.96972,13.69064" id="Fill-8" fill="#87C5DD"></path>
                    </g>
                </g>
            </g>
        </g>
    </g>
</svg>