<?xml version="1.0" encoding="UTF-8"?>
<svg width="28px" height="28px" viewBox="0 0 28 28" version="1.1" xmlns="http://www.w3.org/2000/svg" xmlns:xlink="http://www.w3.org/1999/xlink">
    <!-- Generator: Sketch 47.1 (45422) - http://www.bohemiancoding.com/sketch -->
    <title>过敏icon</title>
    <desc>Created with Sketch.</desc>
    <defs>
        <polygon id="path-1" points="6 -4.5e-05 6 8.999955 0.01288 8.999955 0.01288 -4.5e-05 6 -4.5e-05"></polygon>
    </defs>
    <g id="Page-1" stroke="none" stroke-width="1" fill="none" fill-rule="evenodd">
        <g id="主页-无限行指数2" transform="translate(-315.000000, -1331.000000)">
            <g id="指数" transform="translate(0.000000, 1224.000000)">
                <g id="过敏指数" transform="translate(308.000000, 107.000000)">
                    <g id="过敏icon" transform="translate(7.000000, 0.000000)">
                        <rect id="Rectangle-4" fill="#D8D8D8" opacity="0" x="0" y="0" width="28" height="28"></rect>
                        <path d="M18.3724312,19.2516654 C17.9875716,19.2516654 17.634671,19.4866774 17.5216889,19.8446659 C17.06931,21.2748694 15.7018205,22.3151368 14.0827092,22.3151368 C12.4631479,22.3151368 11.0956583,21.2748694 10.6432795,19.8446659 C10.5302973,19.4866774 10.1778469,19.2516654 9.79253712,19.2516654 C9.19656735,19.2516654 8.74868977,19.8092172 8.92423978,20.3632678 C9.60348327,22.5068226 11.6542675,24.0656919 14.0827092,24.0656919 C16.5107009,24.0656919 18.5614851,22.5068226 19.2411787,20.3632678 C19.4162786,19.8092172 18.9679508,19.2516654 18.3724312,19.2516654" id="Fill-1" fill="#95A3DB"></path>
                        <path d="M10.7006355,21.0022205 L7.9854621,21.0022205 C6.74760948,21.0022205 5.73482098,20.0175332 5.73482098,18.8140266 C5.73482098,17.6105199 6.74760948,15.7505551 7.9854621,15.7505551 L10.7006355,15.7505551 L10.7006355,14 L7.9854621,14 C5.75732739,14 3.93430808,16.6477146 3.93430808,18.8140266 C3.93430808,20.9803385 5.75732739,22.7527756 7.9854621,22.7527756 L10.7006355,22.7527756 L10.7006355,21.0022205 Z" id="Fill-3" fill="#95A3DB"></path>
                        <g id="Group-7" transform="translate(18.000000, 14.000000)">
                            <mask id="mask-2" fill="white">
                                <use xlink:href="#path-1"></use>
                            </mask>
                            <g id="Clip-6"></g>
                            <path d="M2.40008,-4.5e-05 L0.01288,-4.5e-05 L0.01288,1.799955 L2.40008,1.799955 C3.50008,1.799955 4.40008,3.712455 4.40008,4.949955 C4.40008,6.187455 3.50008,7.199955 2.40008,7.199955 L0.01288,7.199955 L0.01288,8.999955 L2.40008,8.999955 C4.38008,8.999955 6.00008,7.177455 6.00008,4.949955 C6.00008,2.722455 4.38008,-4.5e-05 2.40008,-4.5e-05" id="Fill-5" fill="#95A3DB" mask="url(#mask-2)"></path>
                        </g>
                        <path d="M10.9145072,15.3046012 L12.0816896,6.46692369 C12.1303035,6.02184506 12.5165135,5.6848632 12.9765446,5.6848632 L14.9598095,5.6848632 C15.4198406,5.6848632 15.8056004,6.02184506 15.8551145,6.46692369 L17.0213968,15.3046012 C17.0767625,15.8065729 17.5133869,16.1881939 18.0328349,16.1881939 C18.6391576,16.1881939 19.110892,15.6757189 19.044273,15.0897206 L17.7474536,5.49142685 C17.6457246,4.60477069 16.8751051,3.93430808 15.9577438,3.93430808 L11.9786103,3.93430808 C11.061249,3.93430808 10.2901793,4.60477069 10.1893506,5.49142685 L8.89208105,15.0897206 C8.82501194,15.6757189 9.29674632,16.1881939 9.90306904,16.1881939 C10.4229671,16.1881939 10.8591414,15.8065729 10.9145072,15.3046012" id="Fill-8" fill="#95A3DB"></path>
                    </g>
                </g>
            </g>
        </g>
    </g>
</svg>